<?xml version="1.0" encoding="iso-8859-1"?>
<!-- Generator: Adobe Illustrator 19.0.0, SVG Export Plug-In . SVG Version: 6.00 Build 0)  -->
<svg version="1.1" id="Layer_1" xmlns="http://www.w3.org/2000/svg" xmlns:xlink="http://www.w3.org/1999/xlink" x="0px" y="0px"
	 viewBox="0 0 495 495" style="enable-background:new 0 0 495 495;" xml:space="preserve">
<g>
	<polygon style="fill:#CD2A00;" points="247.5,0 247.5,40 455,40 455,455 247.5,455 247.5,495 495,495 495,0 	"/>
	<polygon style="fill:#FF3501;" points="40,455 40,40 247.5,40 247.5,0 0,0 0,495 247.5,495 247.5,455 	"/>
	<path style="fill-rule:evenodd;clip-rule:evenodd;fill:#FF3501;" d="M175.766,373.03c-69.935,0-125.53-55.594-125.53-125.53
		s55.594-125.53,125.53-125.53c34.073,0,62.767,12.554,84.287,34.074L225.98,188.32c-8.967-8.967-25.107-19.728-50.213-19.728
		c-43.035,0-77.109,35.867-77.109,78.908s34.074,78.908,77.109,78.908c50.213,0,68.147-35.867,71.734-53.8h-71.734v-43.041h118.362
		c1.793,7.174,1.793,12.554,1.793,21.52C295.921,322.821,247.5,373.03,175.766,373.03L175.766,373.03z"/>
	<polygon style="fill-rule:evenodd;clip-rule:evenodd;fill:#FF3501;" points="444.764,265.433 408.897,265.433 408.897,301.3 
		373.03,301.3 373.03,265.433 337.162,265.433 337.162,229.567 373.03,229.567 373.03,193.7 408.897,193.7 408.897,229.567 
		444.764,229.567 	"/>
	<path style="fill-rule:evenodd;clip-rule:evenodd;fill:#FF3501;" d="M444.764,264.909"/>
</g>
<g>
</g>
<g>
</g>
<g>
</g>
<g>
</g>
<g>
</g>
<g>
</g>
<g>
</g>
<g>
</g>
<g>
</g>
<g>
</g>
<g>
</g>
<g>
</g>
<g>
</g>
<g>
</g>
<g>
</g>
</svg>
